# xmcd
#
# Track frame offsets:
# 150
# 11265
# 27057
# 39656
# 53163
# 63663
# 77371
# 90406
# 102353
# 120272
#
# Disc length: 1735 seconds
#
#
# Revision: 7
# Processed by: cddbd v1.5.2PL0 Copyright (c) Steve Scherf et al.
# Submitted via: FreeRIP 2.96 
#
DISCID=6806c50a
DTITLE=Hayseed Dixie [USA] - A Hillbilly Tribute to AC/DC
DYEAR=2001
DGENRE=Bluegrass
TTITLE0=Highway to Hell [AC/DC cover from 'Highway to Hell', 1979] [from 'A Hillbilly Tribute to AC/DC', Apr 2001] [MLVox]
TTITLE1=You Shook Me All Night Long [AC/DC cover from 'Back in Black', 1980] [from 'A Hillbilly Tribute to AC/DC', Apr 2001] [MLVox]
TTITLE2=Dirty Deeds Done Dirt Cheap [AC/DC cvr frm 'Dirty Deeds Done Dirt Cheap', 1976] [frm 'A Hillbilly Tribute to AC/DC', Apr 2001]
TTITLE3=Hell's Bells [AC/DC cover from 'Back in Black', 1980] [from 'A Hillbilly Tribute to AC/DC', Apr 2001] [MLVox]
TTITLE4=Moneytalks [AC/DC cover from 'The Razors Edge', 1990] [from 'A Hillbilly Tribute to AC/DC', Apr 2001] [MLVox]
TTITLE5=Let's Get It Up [AC/DC cover from 'For Those About to Rock We Salute You', 1981] [from 'A Hillbilly Tribute to AC/DC', Apr 2001]
TTITLE6=Have a Drink On Me [AC/DC cover from 'Back in Black', 1980] [from 'A Hillbilly Tribute to AC/DC', Apr 2001] [MLVox]
TTITLE7=T.N.T. [AC/DC cover from 'T.N.T.', 1975, and from 'High Voltage' intl ver, 1976] [from 'A Hillbilly Tribute to AC/DC', Apr 2001]
TTITLE8=Back in Black [AC/DC cover from 'Back in Black', 1980] [from 'A Hillbilly Tribute to AC/DC', Apr 2001] [MLVox]
TTITLE9=Big Balls [AC/DC cover from 'Dirty Deeds Done Dirt Cheap', 1976] [from 'A Hillbilly Tribute to AC/DC', Apr 2001] [MLVox]
EXTD=
EXTT0=
EXTT1=
EXTT2=
EXTT3=
EXTT4=
EXTT5=
EXTT6=
EXTT7=
EXTT8=
EXTT9=
PLAYORDER=
